<mxfile host="app.diagrams.net" modified="2023-08-26T22:56:42.667Z" agent="Mozilla/5.0 (Macintosh; Intel Mac OS X 10_15_7) AppleWebKit/605.1.15 (KHTML, like Gecko) Version/16.6 Safari/605.1.15" version="21.6.9" etag="qlCP7ecUa_eudwC4Peh0" type="github">
  <diagram name="페이지-1" id="c1pqG-FZMMaT2aP1SDY8">
    <mxGraphModel>
      <root>
        <mxCell id="0" />
        <mxCell id="1" parent="0" />
      </root>
    </mxGraphModel>
  </diagram>
</mxfile>
